<svg aria-hidden="true" style="width:0;height:0;position:absolute;overflow:hidden" xmlns="http://www.w3.org/2000/svg"><defs><symbol id="icon-CancelFilled" viewBox="0 0 32 32"><path d="M16 2.667A13.304 13.304 0 0 0 2.667 16 13.313 13.313 0 0 0 16 29.333c7.373 0 13.333-5.96 13.333-13.333 0-7.387-5.96-13.333-13.333-13.333zm6.667 18.12-1.88 1.88-4.787-4.8-4.8 4.8-1.867-1.88L14.12 16l-4.787-4.8L11.2 9.333 16 14.12l4.787-4.787 1.88 1.867-4.8 4.8 4.8 4.787z"/></symbol><symbol id="icon-ErrorOutline" viewBox="0 0 32 32"><path fill="#d32f2f" style="fill:var(--color1,#d32f2f)" d="M14.662 20h2.662v2.662h-2.662V20zm0-10.676h2.662v8h-2.662v-8zm1.323-6.662C8.625 2.662 2.661 8.64 2.661 16s5.964 13.324 13.324 13.324c7.36 0 13.338-5.964 13.338-13.324S23.345 2.662 15.985 2.662zm.015 24h-.015c-5.888 0-10.662-4.773-10.662-10.662A10.665 10.665 0 0 1 15.999 5.324c5.888 0 10.662 4.773 10.662 10.662v.015V16a10.659 10.659 0 0 1-10.662 10.662z"/></symbol><symbol id="icon-WarningAmberOutlined" viewBox="0 0 32 32"><path fill="#ef6c00" style="fill:var(--color2,#ef6c00)" d="M16 3.331 1.324 28.655h29.338L16 3.331zm0 5.309 10.036 17.353H5.949L16 8.64zm-1.338 5.353h2.662v6.662h-2.662v-6.662zm0 8v2.662h2.662v-2.662h-2.662z"/></symbol><symbol id="icon-CheckCircleOutlined" viewBox="0 0 32 32"><path fill="#2e7d32" style="fill:var(--color3,#2e7d32)" d="m22.109 10.095-8.785 8.785-4.785-4.771L6.663 16l6.662 6.662L24.001 12l-1.891-1.905zM16 2.662C8.634 2.662 2.662 8.634 2.662 16c0 7.36 5.964 13.324 13.338 13.324 7.345 0 13.324-5.964 13.324-13.324S23.346 2.662 16 2.662zm0 24h-.015c-5.888 0-10.662-4.773-10.662-10.662A10.665 10.665 0 0 1 15.999 5.324c5.888 0 10.662 4.773 10.662 10.662v.015V16a10.659 10.659 0 0 1-10.662 10.662z"/></symbol><symbol id="icon-InfoOutlined" viewBox="0 0 32 32"><path fill="#0288d1" style="fill:var(--color4,#0288d1)" d="M14.662 9.324h2.662V12h-2.662V9.324zm0 5.338h2.662v8h-2.662v-8zm1.323-12C8.625 2.662 2.661 8.626 2.661 16c0 7.345 5.964 13.324 13.324 13.324S29.323 23.346 29.323 16c0-7.366-5.972-13.338-13.338-13.338zm0 24c-5.876 0-10.662-4.785-10.662-10.662 0-5.891 4.785-10.676 10.662-10.676 5.891 0 10.676 4.785 10.676 10.676 0 5.876-4.785 10.662-10.676 10.662z"/></symbol><symbol id="icon-arrow" viewBox="0 0 32 32"><path d="m19.2 6.4-2.256 2.24 8.928 8.96H6.4v3.2h19.472l-8.928 8.944L19.2 32 32 19.2 19.2 6.4z"/></symbol><symbol id="icon-logo" viewBox="0 0 32 32"><path d="M26.272 20.704a.793.793 0 0 0 .304-.304.775.775 0 0 0 .112-.416l.016-4.832a.95.95 0 0 1 .112-.416.97.97 0 0 1 .32-.304l2.608-1.504c.128-.064.272-.096.416-.096s.288.032.416.112c.128.064.224.176.304.304s.112.256.112.416v8.768c0 .144-.032.288-.112.416s-.176.224-.304.304l-9.872 5.664c-.128.064-.272.112-.416.112s-.288-.048-.416-.112l-7.728-4.432a.835.835 0 0 1-.318-.3l-.002-.004a.927.927 0 0 1-.112-.414v-4.418c0-.016.016-.016.016-.016h.016v-.016l6.368-3.664c.016 0 .016-.016 0-.016l.016-4.336a.95.95 0 0 0-.112-.416.805.805 0 0 0-.3-.302l-.004-.002a.769.769 0 0 0-.401-.112h-.015.001a.793.793 0 0 0-.432.112l-4.736 2.72c-.128.08-.272.112-.416.112s-.288-.032-.416-.112l-4.752-2.736a.927.927 0 0 0-.414-.112h-.002a.95.95 0 0 0-.416.112 1.1 1.1 0 0 0-.304.304.775.775 0 0 0-.112.416v7.84a.775.775 0 0 1-.112.416.698.698 0 0 1-.304.304c-.128.08-.272.112-.416.112s-.288-.032-.416-.112l-2.64-1.504a.921.921 0 0 1-.302-.3l-.002-.004a.769.769 0 0 1-.112-.401v-.015.001l.016-13.696a.95.95 0 0 1 .112-.416.97.97 0 0 1 .32-.304.685.685 0 0 1 .377-.112h.024-.001c.16 0 .304.032.416.112l9.04 5.184c.128.08.272.112.416.112s.288-.032.416-.112l9.04-5.184c.128-.08.272-.112.416-.112s.288.032.416.112.224.176.304.304.112.272.112.416v13.696c0 .144-.032.288-.112.416s-.176.24-.304.304l-4.736 2.736c-.128.064-.224.176-.304.304s-.112.272-.112.416.032.288.112.416a.92.92 0 0 0 .304.304l2.608 1.488c.128.064.272.112.416.112s.288-.048.416-.112l5.568-3.2zm.56-12.288c0 .144.032.288.112.416.064.128.176.24.304.304.128.08.272.112.416.112s.288-.048.416-.112l2.512-1.504a.875.875 0 0 0 .4-.719V3.856a.95.95 0 0 0-.112-.416.805.805 0 0 0-.3-.302l-.004-.002a.865.865 0 0 0-.427-.112h-.005a.793.793 0 0 0-.416.128L27.232 4.64a.92.92 0 0 0-.304.304.934.934 0 0 0-.096.416v3.056z"/></symbol><symbol id="icon-back" viewBox="0 0 32 32"><path fill="#fff" style="fill:var(--color1,#fff)" d="M28 14.667H9.107L13.88 9.88 12 8l-8 8 8 8 1.88-1.88-4.773-4.787H28v-2.667z"/></symbol><symbol id="icon-star" viewBox="0 0 32 32"><path fill="#2196f3" style="fill:var(--color2,#2196f3)" d="m16 23.693 8.24 4.973-2.187-9.373 7.28-6.307-9.587-.813-3.747-8.84-3.76 8.84-9.573.813 7.267 6.307-2.187 9.373 8.253-4.973z"/></symbol></defs></svg>